PathFileType	4	(X/Y/Z)	Patient4_TMGait_0pt5_01_left_06.trc.trc
DataRate	CameraRate	NumFrames	NumMarkers	Units	OrigDataRate	OrigDataStartFrame	OrigNumFrames
71.428571428571	71.428571428571	4	33	mm	71.428571428571	71	       141
Frame#	Time	L.ASIS			Sacral			L.Shoulder			Chest			R.Shoulder			Neck			R.ASIS			R.Thigh.Superior			R.Thigh.Lateral			R.Thigh.Inferior			R.Patella			L.Thigh.Superior			L.Thigh.Lateral			L.Thigh.Inferior			L.Patella			L.Shank.Superior			L.Shank.Lateral			L.Shank.Inferior			R.Shank.Superior			R.Shank.Lateral			R.Shank.Inferior			R.Heel			R.Midfoot.Superior			R.Midfoot.Lateral			R.Toe			L.Heel			L.Midfoot.Lateral			L.Midfoot.Superior			L.Toe			L.Elbow			L.Wrist			R.Elbow			R.Wrist			
		X1	Y1	Z1	X2	Y2	Z2	X3	Y3	Z3	X4	Y4	Z4	X5	Y5	Z5	X6	Y6	Z6	X7	Y7	Z7	X8	Y8	Z8	X9	Y9	Z9	X10	Y10	Z10	X11	Y11	Z11	X12	Y12	Z12	X13	Y13	Z13	X14	Y14	Z14	X15	Y15	Z15	X16	Y16	Z16	X17	Y17	Z17	X18	Y18	Z18	X19	Y19	Z19	X20	Y20	Z20	X21	Y21	Z21	X22	Y22	Z22	X23	Y23	Z23	X24	Y24	Z24	X25	Y25	Z25	X26	Y26	Z26	X27	Y27	Z27	X28	Y28	Z28	X29	Y29	Z29	X30	Y30	Z30	X31	Y31	Z31	X32	Y32	Z32	X33	Y33	Z33	

71	8.980000000000	689.809969329778	958.374552652161	305.219375229161	461.785076830371	1000.277942539636	437.447540214185	657.517040810381	1432.471446029488	277.014201493088	733.660505469053	1363.456340372006	452.143202921185	623.985036321273	1436.809552310113	611.996984071959	630.517965973957	1493.673630266066	424.918134684467	674.512857847120	941.625727272382	580.477010018121	743.472830506805	758.803233834575	556.693190256727	686.973036140271	639.575318971817	622.152181519319	775.443351066510	597.311096240434	544.779876676460	802.603403403265	514.602321623135	557.523172652250	699.348617400299	732.889597837459	336.682730169625	592.416731960993	633.819872733133	268.415904548686	650.390047060432	543.665411059903	338.431246562494	635.856788051961	475.309626828236	349.184502009475	604.116026966346	408.066423856002	339.870145593681	506.608617374401	303.030796230502	283.667534776100	537.499215123283	189.360539164394	361.703520304768	787.552180285877	427.308286428767	566.636291915557	735.135794435883	314.178585846470	630.459476701528	802.715025922978	227.780782150840	577.017484731873	705.702383971819	45.084214643737	549.159787225895	870.378219890063	111.419316948471	585.973417483960	790.541833826840	40.351339056840	622.283027253721	994.339336515414	69.943603692183	611.545164059424	392.185138949891	39.664215351079	395.630352355299	471.824775276776	34.935743085361	321.153938928651	554.113263286486	94.901370698273	352.578340410635	683.378743953859	39.713576639326	334.731499322032	721.137597588139	1090.891621211623	146.781843351328	962.667673263660	1001.675129925508	176.755474289590	477.448565820932	1120.511601171353	701.816145659815	456.483294464666	860.267024079125	713.054208062944	
72	8.994000000000	690.136980245537	957.555388187198	306.827752359470	462.510038953578	999.526583480157	440.083764732766	656.924528463649	1431.569548307160	278.716316689767	734.012270623239	1362.820144214901	453.569765909369	624.746091711810	1436.011016681667	613.752483230489	630.464218014742	1492.840737409274	426.776114142752	676.007395829935	940.545565225953	582.023576312853	744.305450249327	756.749293808404	557.855429949958	686.093202145486	637.636633264996	622.524316831108	774.134093643159	595.206117707698	545.013913689290	799.808273661558	512.308933366381	556.780063707898	698.074479812076	731.646511084250	337.564487431476	589.676857837441	633.620578263633	269.677843949303	647.150012377800	542.781758132557	339.107196314827	632.106013865474	474.336300570142	349.761948394016	599.691979775108	407.551960459031	340.332625822512	500.894238735200	303.498228564517	284.153930477938	531.274612713989	189.285162027622	361.732432423759	784.475947731881	424.509581127416	566.035433325655	731.413293830651	311.909686209990	630.010277993370	797.467370819135	224.995725546151	575.891309857245	698.202240528600	44.355072309490	548.948294777121	864.021740135404	108.444014169498	584.181609750384	783.378431315497	39.185976342079	621.598946974685	987.532262869851	65.435978427120	608.938661780975	385.154402696409	40.055229921454	395.557160762430	464.811297268000	35.109600632509	321.173116099329	547.161355048448	94.983377520446	352.513766049422	676.326974516975	39.562261022846	334.685921420642	718.827715621352	1088.955989732619	149.513808268544	958.500328947126	993.460071271712	178.249687124434	482.102986240902	1117.960759139295	704.965698239932	467.319387927858	857.142073885931	715.969872718367	
73	9.008000000000	690.573185506413	956.797484857911	308.551252114899	463.328169290274	998.779537115001	442.961337425622	656.191772565355	1430.729807199589	280.612450178931	734.375187549469	1362.279784726950	455.153002413823	625.524168698125	1435.226160140791	615.723773155918	630.412809423594	1492.055837153911	428.849208959027	677.738778462398	939.528611468393	583.651340491303	745.631262391208	754.879912916393	558.838986926953	685.872600737859	635.938522909807	622.800216085379	773.435161382074	593.389936079399	545.055928908953	797.567368320107	510.060086839516	555.929892201282	697.106034256609	730.499611042434	338.478020761011	587.248277155582	633.450473894824	271.107058005937	644.360620057810	541.938876599136	339.879322552961	628.864607718370	473.321754432076	350.442869155550	595.651720438566	407.026437431411	340.912335309703	495.447514784336	304.102565045764	284.760695321700	525.185305580199	189.275403807815	361.797429687900	781.678594616280	421.713749745784	565.360069135804	727.618743207557	309.825507277045	629.556924718058	791.680182660305	222.132644028801	574.685729642903	689.434521780861	43.787615102531	548.783761683765	856.518327610653	105.529042870180	582.469754048763	774.920092598099	38.199355582257	621.024760039697	979.538145698906	60.834170083819	606.524625542413	378.148718089890	40.656561231750	395.470891475779	457.830734789974	35.385026341595	321.193697687554	540.280076278118	95.118244144788	352.438254741656	669.302409763855	39.380345988278	334.632828723799	716.084986925050	1086.972270885234	152.428234747746	953.415034861542	984.352820330179	179.588017075936	487.099840064227	1115.347804598181	708.429862828587	479.460495326593	854.046493424766	719.225896329990	
74	9.022000000000	691.088720409250	956.151927469983	310.397396869218	464.213213311308	998.109376152720	446.050917139381	655.371821094924	1430.001967516777	282.689926080798	734.771080134367	1361.869163144277	456.885096086869	626.356802397174	1434.522069303717	617.899722770990	630.423623014278	1491.378021997139	431.119688770042	679.635301673263	938.644631921294	585.382633227499	747.299809879513	753.252112615853	559.669223753872	686.221584358220	634.548761560343	623.042879991705	773.236428978962	591.910072875784	544.942575551063	795.832458957306	507.957961117971	555.037520560072	696.447361232208	729.515261690594	339.444796839870	585.191795873546	633.336511715723	272.703855126417	642.115773042334	541.177001223489	340.744373891260	626.251141758965	472.286766305824	351.196040608602	592.080669915286	406.506349984604	341.591930011586	490.334526878320	304.890154333871	285.482434762167	519.279622409153	189.365712138944	361.876986534433	779.212117376512	419.080086591311	564.677519970506	723.994541384428	307.998189355046	629.174398892452	785.747820703399	219.373895454990	573.482778065221	680.113986170329	43.336040273958	548.679914391665	848.435078857033	102.902435777810	580.941818421891	765.870023315620	37.417868512356	620.587896839106	970.993229036096	56.571542771673	604.444581555421	371.184653176621	41.543434973577	395.369190342055	450.895028603419	35.789657070693	321.212312111186	533.507537688715	95.317161258978	352.330022370363	662.316356322600	39.166763865039	334.570953484484	712.943821809658	1084.999712543772	155.528201736522	947.319076802619	974.433316887770	180.773618716908	492.384353514588	1112.801415405429	712.169308956711	492.813197721272	851.197008974105	722.815286579667	
